<svg viewBox="0 0 620 250" preserveAspectRatio="xMidYMid meet" role="img" aria-label="The feasibility boundary. Below and left of the curve no number of unattended turns reaches the density of three directed ones. The curve falls steeply, so attenuation and gate quality substitute for each other." style="width:100%;height:auto;display:block;font-family:'Helvetica Neue', Helvetica, Arial, sans-serif"><rect width="620" height="250" fill="#ffffff"/><line x1="46.0" y1="214.0" x2="606.0" y2="214.0" stroke="#e8e8e8" stroke-width="1"/><line x1="46.0" y1="180.7" x2="606.0" y2="180.7" stroke="#e8e8e8" stroke-width="1"/><line x1="46.0" y1="147.3" x2="606.0" y2="147.3" stroke="#e8e8e8" stroke-width="1"/><line x1="46.0" y1="114.0" x2="606.0" y2="114.0" stroke="#e8e8e8" stroke-width="1"/><line x1="46.0" y1="80.7" x2="606.0" y2="80.7" stroke="#e8e8e8" stroke-width="1"/><line x1="46.0" y1="47.3" x2="606.0" y2="47.3" stroke="#e8e8e8" stroke-width="1"/><line x1="46.0" y1="14.0" x2="606.0" y2="14.0" stroke="#e8e8e8" stroke-width="1"/><line x1="46.0" y1="14.0" x2="46.0" y2="214.0" stroke="#4a4a4a" stroke-width="1"/><line x1="46.0" y1="214.0" x2="606.0" y2="214.0" stroke="#4a4a4a" stroke-width="1"/><line x1="46.0" y1="214.0" x2="46.0" y2="217.5" stroke="#4a4a4a" stroke-width="1"/><text x="46.0" y="227.0" font-family="'Helvetica Neue', Helvetica, Arial, sans-serif" font-size="9" fill="#6b6b6b" text-anchor="middle">0</text><line x1="158.0" y1="214.0" x2="158.0" y2="217.5" stroke="#4a4a4a" stroke-width="1"/><text x="158.0" y="227.0" font-family="'Helvetica Neue', Helvetica, Arial, sans-serif" font-size="9" fill="#6b6b6b" text-anchor="middle">0.2</text><line x1="270.0" y1="214.0" x2="270.0" y2="217.5" stroke="#4a4a4a" stroke-width="1"/><text x="270.0" y="227.0" font-family="'Helvetica Neue', Helvetica, Arial, sans-serif" font-size="9" fill="#6b6b6b" text-anchor="middle">0.4</text><line x1="382.0" y1="214.0" x2="382.0" y2="217.5" stroke="#4a4a4a" stroke-width="1"/><text x="382.0" y="227.0" font-family="'Helvetica Neue', Helvetica, Arial, sans-serif" font-size="9" fill="#6b6b6b" text-anchor="middle">0.6</text><line x1="494.0" y1="214.0" x2="494.0" y2="217.5" stroke="#4a4a4a" stroke-width="1"/><text x="494.0" y="227.0" font-family="'Helvetica Neue', Helvetica, Arial, sans-serif" font-size="9" fill="#6b6b6b" text-anchor="middle">0.8</text><line x1="606.0" y1="214.0" x2="606.0" y2="217.5" stroke="#4a4a4a" stroke-width="1"/><text x="606.0" y="227.0" font-family="'Helvetica Neue', Helvetica, Arial, sans-serif" font-size="9" fill="#6b6b6b" text-anchor="middle">1.0</text><line x1="42.5" y1="214.0" x2="46.0" y2="214.0" stroke="#4a4a4a" stroke-width="1"/><text x="40.0" y="217.0" font-family="'Helvetica Neue', Helvetica, Arial, sans-serif" font-size="9" fill="#6b6b6b" text-anchor="end">0</text><line x1="42.5" y1="180.7" x2="46.0" y2="180.7" stroke="#4a4a4a" stroke-width="1"/><text x="40.0" y="183.7" font-family="'Helvetica Neue', Helvetica, Arial, sans-serif" font-size="9" fill="#6b6b6b" text-anchor="end">0.1</text><line x1="42.5" y1="147.3" x2="46.0" y2="147.3" stroke="#4a4a4a" stroke-width="1"/><text x="40.0" y="150.3" font-family="'Helvetica Neue', Helvetica, Arial, sans-serif" font-size="9" fill="#6b6b6b" text-anchor="end">0.2</text><line x1="42.5" y1="114.0" x2="46.0" y2="114.0" stroke="#4a4a4a" stroke-width="1"/><text x="40.0" y="117.0" font-family="'Helvetica Neue', Helvetica, Arial, sans-serif" font-size="9" fill="#6b6b6b" text-anchor="end">0.3</text><line x1="42.5" y1="80.7" x2="46.0" y2="80.7" stroke="#4a4a4a" stroke-width="1"/><text x="40.0" y="83.7" font-family="'Helvetica Neue', Helvetica, Arial, sans-serif" font-size="9" fill="#6b6b6b" text-anchor="end">0.4</text><line x1="42.5" y1="47.3" x2="46.0" y2="47.3" stroke="#4a4a4a" stroke-width="1"/><text x="40.0" y="50.3" font-family="'Helvetica Neue', Helvetica, Arial, sans-serif" font-size="9" fill="#6b6b6b" text-anchor="end">0.5</text><line x1="42.5" y1="14.0" x2="46.0" y2="14.0" stroke="#4a4a4a" stroke-width="1"/><text x="40.0" y="17.0" font-family="'Helvetica Neue', Helvetica, Arial, sans-serif" font-size="9" fill="#6b6b6b" text-anchor="end">0.6</text><text x="326.0" y="246.0" font-family="'Helvetica Neue', Helvetica, Arial, sans-serif" font-size="10.5" fill="#1a1a1a" text-anchor="middle">λ — context surviving one handoff</text><text x="12" y="114.0" font-family="'Helvetica Neue', Helvetica, Arial, sans-serif" font-size="10.5" fill="#1a1a1a" text-anchor="middle" transform="rotate(-90 12 114.0)">g — catch rate needed</text><polyline points="74.0,39.3 102.0,44.3 130.0,49.7 158.0,55.3 186.0,62.0 214.0,68.7 242.0,76.3 270.0,84.0 298.0,92.7 326.0,101.7 354.0,111.0 382.0,121.0 410.0,131.3 438.0,142.3 466.0,153.3 494.0,165.0 522.0,176.7 550.0,189.0 578.0,201.3" fill="none" stroke="#0072B2" stroke-width="1.6"/><circle cx="74.0" cy="39.3" r="1.9" fill="#0072B2" stroke="#fff" stroke-width="0.5"/><circle cx="102.0" cy="44.3" r="1.9" fill="#0072B2" stroke="#fff" stroke-width="0.5"/><circle cx="130.0" cy="49.7" r="1.9" fill="#0072B2" stroke="#fff" stroke-width="0.5"/><circle cx="158.0" cy="55.3" r="1.9" fill="#0072B2" stroke="#fff" stroke-width="0.5"/><circle cx="186.0" cy="62.0" r="1.9" fill="#0072B2" stroke="#fff" stroke-width="0.5"/><circle cx="214.0" cy="68.7" r="1.9" fill="#0072B2" stroke="#fff" stroke-width="0.5"/><circle cx="242.0" cy="76.3" r="1.9" fill="#0072B2" stroke="#fff" stroke-width="0.5"/><circle cx="270.0" cy="84.0" r="1.9" fill="#0072B2" stroke="#fff" stroke-width="0.5"/><circle cx="298.0" cy="92.7" r="1.9" fill="#0072B2" stroke="#fff" stroke-width="0.5"/><circle cx="326.0" cy="101.7" r="1.9" fill="#0072B2" stroke="#fff" stroke-width="0.5"/><circle cx="354.0" cy="111.0" r="1.9" fill="#0072B2" stroke="#fff" stroke-width="0.5"/><circle cx="382.0" cy="121.0" r="1.9" fill="#0072B2" stroke="#fff" stroke-width="0.5"/><circle cx="410.0" cy="131.3" r="1.9" fill="#0072B2" stroke="#fff" stroke-width="0.5"/><circle cx="438.0" cy="142.3" r="1.9" fill="#0072B2" stroke="#fff" stroke-width="0.5"/><circle cx="466.0" cy="153.3" r="1.9" fill="#0072B2" stroke="#fff" stroke-width="0.5"/><circle cx="494.0" cy="165.0" r="1.9" fill="#0072B2" stroke="#fff" stroke-width="0.5"/><circle cx="522.0" cy="176.7" r="1.9" fill="#0072B2" stroke="#fff" stroke-width="0.5"/><circle cx="550.0" cy="189.0" r="1.9" fill="#0072B2" stroke="#fff" stroke-width="0.5"/><circle cx="578.0" cy="201.3" r="1.9" fill="#0072B2" stroke="#fff" stroke-width="0.5"/></svg>