<svg viewBox="0 0 300 192" role="img" aria-label="Star: 6 turns, depth 2, |Aut| 24, sink ken 0.833."><path class="pl-edge" d="M 146.6 43 C 146.6 68, 34.0 62, 34.0 87"/><path class="pl-edge" d="M 146.6 43 C 146.6 68, 106.1 62, 106.1 87"/><path class="pl-edge" d="M 146.6 43 C 146.6 68, 180.0 62, 180.0 87"/><path class="pl-edge" d="M 146.6 43 C 146.6 68, 266.0 62, 266.0 87"/><path class="pl-edge" d="M 34.0 105 C 34.0 130, 146.6 124, 146.6 149"/><path class="pl-edge" d="M 106.1 105 C 106.1 130, 146.6 124, 146.6 149"/><path class="pl-edge" d="M 180.0 105 C 180.0 130, 146.6 124, 146.6 149"/><path class="pl-edge" d="M 266.0 105 C 266.0 130, 146.6 124, 146.6 149"/><g class="pl-node pl-turn"><title>setup · depth 0</title><circle cx="146.6" cy="34" r="8"/><text x="146.6" y="56" text-anchor="middle">setup</text></g><g class="pl-node pl-turn"><title>w1 · depth 1</title><circle cx="34.0" cy="96" r="8"/><text x="34.0" y="118" text-anchor="middle">w1</text></g><g class="pl-node pl-turn"><title>w2 · depth 1</title><circle cx="106.1" cy="96" r="8"/><text x="106.1" y="118" text-anchor="middle">w2</text></g><g class="pl-node pl-turn"><title>w3 · depth 1</title><circle cx="180.0" cy="96" r="8"/><text x="180.0" y="118" text-anchor="middle">w3</text></g><g class="pl-node pl-turn"><title>w4 · depth 1</title><circle cx="266.0" cy="96" r="8"/><text x="266.0" y="118" text-anchor="middle">w4</text></g><g class="pl-node pl-turn"><title>assemble · depth 2</title><circle cx="146.6" cy="158" r="8"/><text x="146.6" y="180" text-anchor="middle">assemble</text></g><text class="pl-depth" x="6" y="38">0</text><text class="pl-depth" x="6" y="100">1</text><text class="pl-depth" x="6" y="162">2</text></svg>