<svg xmlns="http://www.w3.org/2000/svg" width="800" height="800" viewBox="0 0 800 800"><rect width="100%" height="100%" fill="white"/>
<polygon points="652.9,645.8 505.5,669.3 638.7,701.2" fill="rgb(105,94,63)" stroke="#222" stroke-width="1.2" stroke-linejoin="round"/>
<polygon points="599.0,547.3 652.9,645.8 505.5,669.3" fill="rgb(201,180,120)" stroke="#222" stroke-width="1.2" stroke-linejoin="round"/>
<polygon points="613.2,491.9 465.8,515.4 599.0,547.3" fill="rgb(105,94,63)" stroke="#222" stroke-width="1.2" stroke-linejoin="round"/>
<polygon points="559.4,393.4 613.2,491.9 465.8,515.4" fill="rgb(201,180,120)" stroke="#222" stroke-width="1.2" stroke-linejoin="round"/>
<polygon points="573.5,338.0 426.1,361.5 559.4,393.4" fill="rgb(105,94,63)" stroke="#222" stroke-width="1.2" stroke-linejoin="round"/>
<polygon points="519.7,239.5 573.5,338.0 426.1,361.5" fill="rgb(201,180,120)" stroke="#222" stroke-width="1.2" stroke-linejoin="round"/>
<polygon points="519.7,613.9 372.3,637.4 505.5,669.3" fill="rgb(105,94,63)" stroke="#222" stroke-width="1.2" stroke-linejoin="round"/>
<polygon points="465.8,515.4 519.7,613.9 372.3,637.4" fill="rgb(201,180,120)" stroke="#222" stroke-width="1.2" stroke-linejoin="round"/>
<polygon points="533.9,184.1 386.5,207.6 519.7,239.5" fill="rgb(105,94,63)" stroke="#222" stroke-width="1.2" stroke-linejoin="round"/>
<polygon points="480.0,85.7 533.9,184.1 386.5,207.6" fill="rgb(201,180,120)" stroke="#222" stroke-width="1.2" stroke-linejoin="round"/>
<polygon points="667.1,590.4 519.7,613.9 652.9,645.8" fill="rgb(105,94,63)" stroke="#222" stroke-width="1.2" stroke-linejoin="round"/>
<polygon points="440.3,306.1 292.9,329.6 426.1,361.5" fill="rgb(105,94,63)" stroke="#222" stroke-width="1.2" stroke-linejoin="round"/>
<polygon points="613.2,491.9 667.1,590.4 519.7,613.9" fill="rgb(201,180,120)" stroke="#222" stroke-width="1.2" stroke-linejoin="round"/>
<polygon points="386.5,207.6 440.3,306.1 292.9,329.6" fill="rgb(201,180,120)" stroke="#222" stroke-width="1.2" stroke-linejoin="round"/>
<polygon points="386.5,582.0 239.1,605.5 372.3,637.4" fill="rgb(105,94,63)" stroke="#222" stroke-width="1.2" stroke-linejoin="round"/>
<polygon points="332.6,483.5 386.5,582.0 239.1,605.5" fill="rgb(201,180,120)" stroke="#222" stroke-width="1.2" stroke-linejoin="round"/>
<polygon points="346.8,428.1 199.4,451.6 332.6,483.5" fill="rgb(105,94,63)" stroke="#222" stroke-width="1.2" stroke-linejoin="round"/>
<polygon points="587.7,282.6 440.3,306.1 573.5,338.0" fill="rgb(105,94,63)" stroke="#222" stroke-width="1.2" stroke-linejoin="round"/>
<polygon points="292.9,329.6 346.8,428.1 199.4,451.6" fill="rgb(201,180,120)" stroke="#222" stroke-width="1.2" stroke-linejoin="round"/>
<polygon points="533.9,184.1 587.7,282.6 440.3,306.1" fill="rgb(201,180,120)" stroke="#222" stroke-width="1.2" stroke-linejoin="round"/>
<polygon points="253.2,550.1 105.8,573.6 239.1,605.5" fill="rgb(105,94,63)" stroke="#222" stroke-width="1.2" stroke-linejoin="round"/>
<polygon points="199.4,451.6 253.2,550.1 105.8,573.6" fill="rgb(201,180,120)" stroke="#222" stroke-width="1.2" stroke-linejoin="round"/>
<polygon points="681.3,535.0 533.9,558.5 667.1,590.4" fill="rgb(105,94,63)" stroke="#222" stroke-width="1.2" stroke-linejoin="round"/>
<polygon points="627.4,436.5 681.3,535.0 533.9,558.5" fill="rgb(201,180,120)" stroke="#222" stroke-width="1.2" stroke-linejoin="round"/>
<polygon points="400.6,526.6 253.2,550.1 386.5,582.0" fill="rgb(105,94,63)" stroke="#222" stroke-width="1.2" stroke-linejoin="round"/>
<polygon points="641.6,381.1 494.2,404.6 627.4,436.5" fill="rgb(105,94,63)" stroke="#222" stroke-width="1.2" stroke-linejoin="round"/>
<polygon points="346.8,428.1 400.6,526.6 253.2,550.1" fill="rgb(201,180,120)" stroke="#222" stroke-width="1.2" stroke-linejoin="round"/>
<polygon points="587.7,282.6 641.6,381.1 494.2,404.6" fill="rgb(201,180,120)" stroke="#222" stroke-width="1.2" stroke-linejoin="round"/>
<polygon points="548.0,503.1 400.6,526.6 533.9,558.5" fill="rgb(105,94,63)" stroke="#222" stroke-width="1.2" stroke-linejoin="round"/>
<polygon points="494.2,404.6 548.0,503.1 400.6,526.6" fill="rgb(201,180,120)" stroke="#222" stroke-width="1.2" stroke-linejoin="round"/>
<polygon points="695.4,479.6 548.0,503.1 681.3,535.0" fill="rgb(105,94,63)" stroke="#222" stroke-width="1.2" stroke-linejoin="round"/>
<polygon points="641.6,381.1 695.4,479.6 548.0,503.1" fill="rgb(201,180,120)" stroke="#222" stroke-width="1.2" stroke-linejoin="round"/>
</svg>